<svg width="20" height="21" fill="none" xmlns="http://www.w3.org/2000/svg"><path d="M9.733.303a2.048 2.048 0 0 0-.912.379c-.605.434-7.729 6.003-7.931 6.2-.28.273-.52.635-.658.992-.22.572-.209.319-.223 4.959-.014 4.672.004 5.452.136 5.97a2.87 2.87 0 0 0 1.519 1.863c.365.183.769.265 1.485.301.359.018 3.337.032 6.851.032s6.492-.014 6.851-.032c.716-.036 1.12-.118 1.485-.301a2.87 2.87 0 0 0 1.519-1.863c.132-.522.15-1.325.136-5.986-.015-4.621-.003-4.372-.223-4.943a2.898 2.898 0 0 0-.658-.992c-.185-.18-7.133-5.617-7.872-6.16-.481-.353-.965-.488-1.505-.419m3.932 4.798a653.235 653.235 0 0 1 3.901 3.048c.207.173.274.253.346.414l.089.198-.009 4.745c-.008 3.836-.018 4.769-.054 4.875-.063.186-.388.502-.574.558-.121.036-1.449.044-7.364.044s-7.243-.008-7.364-.044c-.201-.061-.514-.374-.575-.575-.036-.12-.044-1.04-.044-4.914V8.683l.082-.161c.054-.106.169-.234.333-.372.333-.28 7.541-5.883 7.568-5.883.012 0 1.661 1.275 3.665 2.834m-7.914 9.936c-.536.078-.807.529-.714 1.188.061.435.305.677.746.74.146.021 1.732.034 4.217.034 2.485 0 4.071-.013 4.217-.034.441-.063.685-.305.746-.74.095-.677-.175-1.108-.746-1.19-.291-.042-8.179-.04-8.466.002" fill-rule="evenodd" fill="#000"/></svg>